<svg width="402" height="146" viewBox="0 0 402 146" fill="none" xmlns="http://www.w3.org/2000/svg">
<g filter="url(#filter0_b_13_36)">
<path d="M0 0H402V86H0V0Z" fill="black" fill-opacity="0.1"/>
</g>
<g filter="url(#filter1_b_13_36)">
<path fill-rule="evenodd" clip-rule="evenodd" d="M397 5H5V81H397V5ZM0 0V86H402V0H0Z" fill="white"/>
</g>
<path d="M329.7 63H324.947C324.437 63 324.061 62.7852 323.792 62.3823L308.055 37.7021V61.6304C308.055 62.3823 307.437 63 306.685 63H301.985C301.233 63 300.616 62.3823 300.616 61.6304V25.4561C300.616 24.7041 301.233 24.1133 301.985 24.1133H306.712C307.222 24.1133 307.598 24.3281 307.867 24.731L323.631 49.4111V25.4561C323.631 24.7041 324.249 24.1133 325 24.1133H329.7C330.452 24.1133 331.07 24.7041 331.07 25.4561V61.6304C331.07 62.3823 330.452 63 329.7 63Z" fill="white"/>
<path d="M271.374 63.6177C268.554 63.6177 265.976 63.1074 263.639 62.1138C261.168 61.0664 259.074 59.4819 257.328 57.4141C255.771 55.561 254.589 53.3857 253.81 50.915C253.085 48.6055 252.709 46.1616 252.709 43.5566C252.709 40.9517 253.085 38.5078 253.81 36.1982C254.589 33.7007 255.771 31.5254 257.328 29.6724C259.074 27.6045 261.168 26.0469 263.639 24.9995C265.976 24.0059 268.554 23.4956 271.374 23.4956C274.193 23.4956 276.771 24.0059 279.108 24.9995C281.579 26.0469 283.673 27.6045 285.419 29.6724C286.977 31.5254 288.158 33.7007 288.937 36.1982C289.662 38.5078 290.038 40.9517 290.038 43.5566C290.038 46.1616 289.662 48.6055 288.937 50.915C288.158 53.3857 286.977 55.561 285.419 57.4141C283.673 59.4819 281.579 61.0664 279.108 62.1138C276.771 63.1074 274.193 63.6177 271.374 63.6177ZM271.374 56.7695C275.106 56.7695 277.98 55.3193 280.021 52.4189C281.686 50.0288 282.519 47.0747 282.519 43.5566C282.519 40.0386 281.686 37.0576 280.021 34.6675C277.953 31.7939 275.08 30.3438 271.374 30.3438C267.667 30.3438 264.794 31.7939 262.726 34.6675C261.061 37.0576 260.229 40.0117 260.229 43.5566C260.229 47.1016 261.061 50.0557 262.726 52.4189C264.767 55.3193 267.641 56.7695 271.374 56.7695Z" fill="white"/>
<path d="M242.4 63H237.271C236.76 63 236.357 62.7852 236.089 62.3286L227.227 46.9404H222.473V61.6304C222.473 62.3823 221.882 63 221.13 63H216.323C215.571 63 214.954 62.3823 214.954 61.6304V25.4561C214.954 24.7041 215.571 24.1133 216.323 24.1133H229.509C232.571 24.1133 235.229 24.8652 237.512 26.3691C240.627 28.437 242.427 31.7671 242.427 35.5269C242.427 37.4067 241.997 39.1523 241.138 40.7368C239.795 43.1807 237.727 44.9263 234.961 45.9736L243.582 60.959C243.716 61.1738 243.796 61.3887 243.796 61.6304C243.796 61.8721 243.716 62.0869 243.582 62.3286C243.34 62.7852 242.937 63 242.4 63ZM222.473 39.958H229.509C230.986 39.958 232.222 39.6089 233.215 38.9375C234.343 38.1318 234.907 37.0039 234.907 35.5269C234.907 34.0498 234.343 32.895 233.215 32.1162C232.222 31.418 230.986 31.0688 229.509 31.0688H222.473V39.958Z" fill="white"/>
<path d="M201.69 63H178.809C178.057 63 177.439 62.3823 177.439 61.6304V25.4561C177.439 24.7041 178.057 24.1133 178.809 24.1133H201.69C202.442 24.1133 203.06 24.7041 203.06 25.4561V29.6992C203.06 30.4512 202.442 31.0688 201.69 31.0688H184.959V39.9043H200.105C200.884 39.9043 201.475 40.522 201.475 41.2739V45.5171C201.475 46.269 200.884 46.8867 200.105 46.8867H184.959V56.0176H201.69C202.442 56.0176 203.06 56.6353 203.06 57.3872V61.6304C203.06 62.3823 202.442 63 201.69 63Z" fill="white"/>
<path d="M162.511 63H157.838C157.086 63 156.469 62.3823 156.469 61.6304V37.165L145.861 53.8691C145.592 54.2988 145.216 54.5137 144.706 54.5137C144.223 54.5137 143.847 54.2988 143.578 53.8691L132.97 37.165V61.6304C132.97 62.3823 132.353 63 131.601 63H126.901C126.149 63 125.531 62.3823 125.531 61.6304V25.4561C125.531 24.7041 126.149 24.1133 126.901 24.1133H131.923C132.433 24.1133 132.809 24.3281 133.078 24.731L144.706 42.9658L156.361 24.731C156.63 24.3281 157.006 24.1133 157.516 24.1133H162.511C163.263 24.1133 163.881 24.7041 163.881 25.4561V61.6304C163.881 62.3823 163.263 63 162.511 63Z" fill="white"/>
<path d="M93.2271 46.2959H102.224L97.7388 33.5396L93.2271 46.2959ZM90.7832 53.2783L87.668 62.0869C87.4263 62.7046 86.9966 63 86.3789 63H81.2764C80.7393 63 80.3633 62.812 80.1484 62.4092C80.041 62.1943 79.9873 61.9526 79.9873 61.6841C79.9873 61.4155 80.1216 60.959 80.3633 60.3145L93.1733 24.9995C93.3613 24.4624 93.8716 24.1133 94.4355 24.1133H101.015C101.633 24.1133 102.063 24.4087 102.304 24.9995L115.114 60.3145C115.356 60.959 115.49 61.4155 115.49 61.6841C115.49 61.9526 115.437 62.1943 115.329 62.4092C115.114 62.812 114.738 63 114.201 63H109.099C108.481 63 108.051 62.7046 107.81 62.0869L104.694 53.2783H90.7832Z" fill="white"/>
<path d="M58.3989 63.6177C55.5791 63.6177 53.001 63.1074 50.6646 62.1138C48.1938 61.0664 46.0991 59.4819 44.3535 57.4141C42.7959 55.561 41.6143 53.3857 40.8354 50.915C40.1104 48.6055 39.7344 46.1616 39.7344 43.5566C39.7344 40.9517 40.1104 38.5078 40.8354 36.1982C41.6143 33.7007 42.7959 31.5254 44.3535 29.6724C46.0991 27.6045 48.1938 26.0469 50.6646 24.9995C53.001 24.0059 55.5791 23.4956 58.3989 23.4956C60.5742 23.4956 62.7227 23.791 64.8979 24.355C67.1538 24.9727 69.168 25.8052 70.9136 26.9062C71.3433 27.2017 71.5581 27.5776 71.5581 28.0879C71.5581 28.3296 71.5044 28.5444 71.3701 28.7593L69.2217 32.4385C68.98 32.895 68.5771 33.1099 68.0132 33.1099C67.7446 33.1099 67.5029 33.0293 67.2612 32.8682C66.1064 32.0356 64.71 31.418 63.0181 30.9614C61.4873 30.5586 59.9297 30.3438 58.3452 30.3438C56.5459 30.3438 54.9346 30.6929 53.5112 31.418C52.0342 32.1431 50.772 33.2441 49.7515 34.6675C48.0864 37.0576 47.2539 40.0117 47.2539 43.5566C47.2539 47.0747 48.0864 50.0288 49.7515 52.4189C51.7925 55.3193 54.666 56.7695 58.3989 56.7695C59.9297 56.7695 61.4873 56.5547 63.0181 56.1519C64.71 55.6953 66.1064 55.0776 67.2612 54.2451C67.5029 54.084 67.7446 54.0034 68.0132 54.0034C68.5771 54.0034 68.98 54.2183 69.2217 54.6748L71.3701 58.354C71.5044 58.5688 71.5581 58.7837 71.5581 59.0254C71.5581 59.5088 71.3433 59.8848 70.9136 60.1802C69.168 61.2812 67.1538 62.1406 64.8979 62.7583C62.7227 63.3223 60.5742 63.6177 58.3989 63.6177Z" fill="white"/>
<path d="M312.656 124.375C311.42 123.301 310.507 121.985 309.917 120.427C309.433 119.192 309.191 117.903 309.191 116.56C309.191 114.6 309.621 112.827 310.48 111.243C312.495 107.429 316.254 105.522 321.706 105.522C326.137 105.522 330.004 106.677 333.281 108.96C333.71 109.255 333.925 109.631 333.925 110.142C333.925 110.356 333.872 110.571 333.737 110.786L331.616 114.465C331.32 114.922 330.944 115.164 330.434 115.164C330.139 115.164 329.87 115.083 329.628 114.895C328.85 114.331 327.749 113.74 326.298 113.096C324.875 112.451 323.344 112.102 321.706 112.075C320.39 112.075 319.262 112.344 318.349 112.908C317.248 113.606 316.711 114.519 316.711 115.62C316.711 117.393 318.027 119.111 320.686 120.75C321.625 121.313 322.807 121.958 324.204 122.737C327.077 124.321 329.145 125.664 330.461 126.792C331.696 127.866 332.609 129.182 333.2 130.74C333.684 131.975 333.925 133.264 333.925 134.607C333.925 136.567 333.496 138.34 332.636 139.924C330.622 143.738 326.862 145.645 321.411 145.645C316.979 145.645 313.112 144.49 309.836 142.207C309.406 141.912 309.191 141.536 309.191 141.025C309.191 140.811 309.245 140.596 309.379 140.381L311.501 136.702C311.796 136.245 312.172 136.003 312.683 136.003C312.978 136.003 313.247 136.084 313.488 136.272C314.267 136.836 315.368 137.427 316.792 138.071C318.242 138.716 319.772 139.065 321.411 139.092C322.995 139.092 324.204 138.716 325.09 137.991C325.976 137.292 326.406 136.487 326.406 135.547C326.406 133.801 325.385 132.271 323.317 130.928C322.297 130.31 320.927 129.504 319.182 128.564C316.174 126.926 313.999 125.53 312.656 124.375Z" fill="white"/>
<path d="M295.498 145H290.718C289.966 145 289.348 144.382 289.348 143.63V107.456C289.348 106.704 289.966 106.113 290.718 106.113H295.498C296.25 106.113 296.868 106.704 296.868 107.456V143.63C296.868 144.382 296.25 145 295.498 145Z" fill="white"/>
<path d="M268.539 145H263.087C262.416 145 261.959 144.651 261.771 143.979L255.782 121.609L254.977 118.01L254.198 121.609L248.182 143.979C247.994 144.651 247.538 145 246.866 145H241.415C240.743 145 240.287 144.651 240.099 143.979C233.6 119.756 230.35 107.563 230.35 107.429C230.35 107.134 230.458 106.865 230.646 106.624C230.914 106.274 231.263 106.113 231.72 106.113H236.688C237.306 106.113 237.87 106.516 238.004 107.134L243.644 129.504L244.234 132.297L244.825 129.558L250.841 107.107C251.029 106.436 251.485 106.113 252.157 106.113H257.796C258.468 106.113 258.924 106.436 259.112 107.107L265.101 129.504L265.719 132.297C266.122 130.471 268.189 122.092 271.949 107.134C272.137 106.462 272.567 106.113 273.292 106.113H278.233C278.69 106.113 279.039 106.274 279.334 106.624C279.522 106.838 279.603 107.107 279.603 107.429C279.603 107.563 276.354 119.756 269.881 143.979C269.693 144.651 269.237 145 268.539 145Z" fill="white"/>
<path d="M219.342 145H196.461C195.709 145 195.092 144.382 195.092 143.63V107.456C195.092 106.704 195.709 106.113 196.461 106.113H219.342C220.094 106.113 220.712 106.704 220.712 107.456V111.699C220.712 112.451 220.094 113.069 219.342 113.069H202.611V121.904H217.758C218.537 121.904 219.127 122.522 219.127 123.274V127.517C219.127 128.269 218.537 128.887 217.758 128.887H202.611V138.018H219.342C220.094 138.018 220.712 138.635 220.712 139.387V143.63C220.712 144.382 220.094 145 219.342 145Z" fill="white"/>
<path d="M183.628 145H160.774C160.022 145 159.404 144.382 159.404 143.63V107.456C159.404 106.704 160.022 106.113 160.774 106.113H165.554C166.306 106.113 166.924 106.704 166.924 107.456V138.018H183.628C184.38 138.018 184.998 138.635 184.998 139.387V143.63C184.998 144.382 184.38 145 183.628 145Z" fill="white"/>
<path d="M351.158 56.5815V61.6304C351.158 62.0063 351.023 62.3286 350.755 62.5972C350.486 62.8657 350.164 63 349.788 63H344.739C344.363 63 344.041 62.8657 343.772 62.5972C343.504 62.3286 343.37 62.0063 343.37 61.6304V56.5815C343.37 56.2056 343.504 55.8833 343.772 55.6147C344.041 55.3462 344.363 55.2119 344.739 55.2119H349.788C350.164 55.2119 350.486 55.3462 350.755 55.6147C351.023 55.8833 351.158 56.2056 351.158 56.5815Z" fill="#CF74EF"/>
<path d="M388.629 72.5068H359.25C358.498 72.5068 357.88 71.8892 357.88 71.1372V67.9683C357.88 67.2163 358.498 66.5986 359.25 66.5986H388.629C389.381 66.5986 389.999 67.2163 389.999 67.9683V71.1372C389.999 71.8892 389.381 72.5068 388.629 72.5068Z" fill="#07D2EE"/>
<defs>
<filter id="filter0_b_13_36" x="-10" y="-10" width="422" height="106" filterUnits="userSpaceOnUse" color-interpolation-filters="sRGB">
<feFlood flood-opacity="0" result="BackgroundImageFix"/>
<feGaussianBlur in="BackgroundImageFix" stdDeviation="5"/>
<feComposite in2="SourceAlpha" operator="in" result="effect1_backgroundBlur_13_36"/>
<feBlend mode="normal" in="SourceGraphic" in2="effect1_backgroundBlur_13_36" result="shape"/>
</filter>
<filter id="filter1_b_13_36" x="-10" y="-10" width="422" height="106" filterUnits="userSpaceOnUse" color-interpolation-filters="sRGB">
<feFlood flood-opacity="0" result="BackgroundImageFix"/>
<feGaussianBlur in="BackgroundImageFix" stdDeviation="5"/>
<feComposite in2="SourceAlpha" operator="in" result="effect1_backgroundBlur_13_36"/>
<feBlend mode="normal" in="SourceGraphic" in2="effect1_backgroundBlur_13_36" result="shape"/>
</filter>
</defs>
</svg>
